<?xml version="1.0" standalone="no"?>
<!DOCTYPE svg PUBLIC "-//W3C//DTD SVG 20010904//EN"
 "http://www.w3.org/TR/2001/REC-SVG-20010904/DTD/svg10.dtd">
<svg version="1.0" xmlns="http://www.w3.org/2000/svg"
 width="2048.000000" height="1024.000000" viewBox="0 0 2048 1024"
 preserveAspectRatio="xMidYMid meet">
  <g id="TRUNK">

<metadata>
Created by potrace 1.16, written by Peter Selinger 2001-2019
</metadata>
<g transform="translate(0.000000,1024.000000) scale(0.100000,-0.100000)"
fill="#FFFFFF" stroke="none">
<path d="M9795 6810 c-625 -13 -1251 -53 -1870 -120 -280 -31 -261 -26 -279
-71 -9 -22 -16 -42 -16 -44 0 -3 1175 -5 2611 -5 l2610 0 -7 23 c-16 52 -24
67 -36 67 -7 0 -42 5 -78 10 -112 16 -554 58 -825 80 -685 53 -1421 74 -2110
60z"/>
<path d="M7640 6524 c0 -18 44 -154 50 -154 4 0 46 -25 95 -55 l87 -55 822 0
c451 0 827 -4 835 -9 10 -6 11 -20 6 -52 -27 -163 -147 -292 -306 -328 -24 -6
-132 -11 -239 -11 -107 0 -401 -3 -652 -7 l-458 -6 0 -204 0 -203 2360 0 2360
0 0 210 0 209 -678 3 -678 3 -76 38 c-119 58 -195 156 -218 279 -7 36 -7 55 1
64 9 12 154 14 835 14 l823 0 70 45 c38 25 80 49 93 54 18 7 29 26 46 78 12
38 22 75 22 81 0 9 -610 12 -2600 12 -1430 0 -2600 -3 -2600 -6z"/>
<path d="M7900 5393 c0 -5 41 -97 92 -205 l91 -198 2157 0 2157 0 92 198 c50
108 91 200 91 205 0 9 -4680 9 -4680 0z"/>
</g>

  </g>
  <g id="TRUNK_points">
    <g id="TRUNK_point_1" data-count="1">
      <circle cx="847.5999755859375" cy="462.79998779296875" r="22.0" fill="none" stroke="#000000" stroke-width="2"/>
      <text x="847.5999755859375" y="462.79998779296875" text-anchor="middle" dominant-baseline="central" font-family="Arial, Helvetica, sans-serif" font-size="19" font-weight="700" fill="#000000">1</text>
    </g>
    <g id="TRUNK_point_2" data-count="2">
      <circle cx="1023.5999755859375" cy="392.79998779296875" r="22.0" fill="none" stroke="#000000" stroke-width="2"/>
      <text x="1023.5999755859375" y="392.79998779296875" text-anchor="middle" dominant-baseline="central" font-family="Arial, Helvetica, sans-serif" font-size="19" font-weight="700" fill="#000000">2</text>
    </g>
    <g id="TRUNK_point_3" data-count="3">
      <circle cx="1199.5999755859375" cy="462.79998779296875" r="22.0" fill="none" stroke="#000000" stroke-width="2"/>
      <text x="1199.5999755859375" y="462.79998779296875" text-anchor="middle" dominant-baseline="central" font-family="Arial, Helvetica, sans-serif" font-size="19" font-weight="700" fill="#000000">3</text>
    </g>
  </g>
</svg>
