<?xml version="1.0" standalone="no"?>
<!DOCTYPE svg PUBLIC "-//W3C//DTD SVG 20010904//EN"
 "http://www.w3.org/TR/2001/REC-SVG-20010904/DTD/svg10.dtd">
<svg version="1.0" xmlns="http://www.w3.org/2000/svg"
 width="2048.000000" height="1024.000000" viewBox="0 0 2048 1024"
 preserveAspectRatio="xMidYMid meet">
  <g id="RIGHT_PILLAR">

<metadata>
Created by potrace 1.16, written by Peter Selinger 2001-2019
</metadata>
<g transform="translate(0.000000,1024.000000) scale(0.100000,-0.100000)"
fill="#FFFFFF" stroke="none">
<path d="M7710 8253 c-95 -55 -207 -172 -253 -263 -77 -155 -77 -152 -77 -872
l0 -639 148 3 147 3 5 620 c5 607 5 621 27 673 51 125 136 217 253 275 l65 32
1903 3 1904 2 252 -124 c533 -263 975 -559 1429 -953 146 -127 567 -548 604
-604 l26 -40 24 30 c26 33 80 69 118 80 23 6 -1 28 -257 242 -644 538 -1279
996 -2010 1452 l-187 117 -2028 0 -2028 0 -65 -37z"/>
</g>

  </g>
  <g id="RIGHT_PILLAR_points">
    <g id="RIGHT_PILLAR_point_1" data-count="1">
      <circle cx="786.0" cy="210.8125" r="22.0" fill="none" stroke="#000000" stroke-width="2"/>
      <text x="786.0" y="210.8125" text-anchor="middle" dominant-baseline="central" font-family="Arial, Helvetica, sans-serif" font-size="19" font-weight="700" fill="#000000">1</text>
    </g>
    <g id="RIGHT_PILLAR_point_2" data-count="2">
      <circle cx="1016.0" cy="204.8125" r="22.0" fill="none" stroke="#000000" stroke-width="2"/>
      <text x="1016.0" y="204.8125" text-anchor="middle" dominant-baseline="central" font-family="Arial, Helvetica, sans-serif" font-size="19" font-weight="700" fill="#000000">2</text>
    </g>
    <g id="RIGHT_PILLAR_point_3" data-count="3">
      <circle cx="1246.0" cy="240.8125" r="22.0" fill="none" stroke="#000000" stroke-width="2"/>
      <text x="1246.0" y="240.8125" text-anchor="middle" dominant-baseline="central" font-family="Arial, Helvetica, sans-serif" font-size="19" font-weight="700" fill="#000000">3</text>
    </g>
    <g id="RIGHT_PILLAR_point_4" data-count="4">
      <circle cx="1410.0" cy="366.8125" r="22.0" fill="none" stroke="#000000" stroke-width="2"/>
      <text x="1410.0" y="366.8125" text-anchor="middle" dominant-baseline="central" font-family="Arial, Helvetica, sans-serif" font-size="19" font-weight="700" fill="#000000">4</text>
    </g>
  </g>
</svg>
