<?xml version="1.0" standalone="no"?>
<!DOCTYPE svg PUBLIC "-//W3C//DTD SVG 20010904//EN"
 "http://www.w3.org/TR/2001/REC-SVG-20010904/DTD/svg10.dtd">
<svg version="1.0" xmlns="http://www.w3.org/2000/svg"
 width="2048.000000" height="1024.000000" viewBox="0 0 2048 1024"
 preserveAspectRatio="xMidYMid meet">
  <g id="LEFT_FRONT_DOOR">

<metadata>
Created by potrace 1.16, written by Peter Selinger 2001-2019
</metadata>
<g transform="translate(0.000000,1024.000000) scale(0.100000,-0.100000)"
fill="#FFFFFF" stroke="none">
<path d="M9685 5968 l-2330 -59 -55 -37 c-82 -55 -230 -206 -290 -296 -62 -93
-118 -210 -155 -321 -50 -153 -81 -574 -72 -980 8 -361 37 -652 99 -989 l22
-119 741 6 c1180 11 2093 32 3760 87 182 6 340 13 351 16 18 3 35 38 92 181
212 535 353 1062 438 1643 58 399 21 637 -140 883 -30 46 -32 47 -81 46 -27
-1 -1098 -28 -2380 -61z m2234 -128 c143 -18 211 -62 211 -136 0 -80 -38 -99
-202 -99 l-116 0 -27 -42 c-114 -181 -359 -200 -538 -43 -45 40 -45 40 -81 25
-67 -28 -118 -19 -141 26 -60 115 77 201 420 263 96 17 357 20 474 6z"/>
<path d="M11490 5799 c-121 -20 -279 -63 -347 -94 -82 -38 -104 -67 -85 -110
16 -34 47 -32 133 5 162 72 324 92 517 66 138 -19 279 -25 334 -13 70 15 60
84 -17 118 -78 34 -394 51 -535 28z"/>
<path d="M11368 5611 c-124 -27 -129 -31 -80 -70 65 -51 128 -74 217 -79 73
-4 85 -1 135 25 32 17 68 47 88 73 44 57 37 61 -136 66 -109 3 -155 0 -224
-15z"/>
</g>

  </g>
  <g id="LEFT_FRONT_DOOR_points">
    <g id="LEFT_FRONT_DOOR_point_1" data-count="1">
      <circle cx="740.0" cy="464.8125" r="22.0" fill="none" stroke="#000000" stroke-width="2"/>
      <text x="740.0" y="464.8125" text-anchor="middle" dominant-baseline="central" font-family="Arial, Helvetica, sans-serif" font-size="19" font-weight="700" fill="#000000">1</text>
    </g>
    <g id="LEFT_FRONT_DOOR_point_2" data-count="2">
      <circle cx="710.0" cy="564.8125" r="22.0" fill="none" stroke="#000000" stroke-width="2"/>
      <text x="710.0" y="564.8125" text-anchor="middle" dominant-baseline="central" font-family="Arial, Helvetica, sans-serif" font-size="19" font-weight="700" fill="#000000">2</text>
    </g>
    <g id="LEFT_FRONT_DOOR_point_3" data-count="3">
      <circle cx="718.0" cy="686.8125" r="22.0" fill="none" stroke="#000000" stroke-width="2"/>
      <text x="718.0" y="686.8125" text-anchor="middle" dominant-baseline="central" font-family="Arial, Helvetica, sans-serif" font-size="19" font-weight="700" fill="#000000">3</text>
    </g>
    <g id="LEFT_FRONT_DOOR_point_4" data-count="4">
      <circle cx="954.0" cy="564.8125" r="22.0" fill="none" stroke="#000000" stroke-width="2"/>
      <text x="954.0" y="564.8125" text-anchor="middle" dominant-baseline="central" font-family="Arial, Helvetica, sans-serif" font-size="19" font-weight="700" fill="#000000">4</text>
    </g>
    <g id="LEFT_FRONT_DOOR_point_5" data-count="5">
      <circle cx="1200.0" cy="458.8125" r="22.0" fill="none" stroke="#000000" stroke-width="2"/>
      <text x="1200.0" y="458.8125" text-anchor="middle" dominant-baseline="central" font-family="Arial, Helvetica, sans-serif" font-size="19" font-weight="700" fill="#000000">5</text>
    </g>
    <g id="LEFT_FRONT_DOOR_point_6" data-count="6">
      <circle cx="1188.0" cy="562.8125" r="22.0" fill="none" stroke="#000000" stroke-width="2"/>
      <text x="1188.0" y="562.8125" text-anchor="middle" dominant-baseline="central" font-family="Arial, Helvetica, sans-serif" font-size="19" font-weight="700" fill="#000000">6</text>
    </g>
    <g id="LEFT_FRONT_DOOR_point_7" data-count="7">
      <circle cx="1160.0" cy="664.8125" r="22.0" fill="none" stroke="#000000" stroke-width="2"/>
      <text x="1160.0" y="664.8125" text-anchor="middle" dominant-baseline="central" font-family="Arial, Helvetica, sans-serif" font-size="19" font-weight="700" fill="#000000">7</text>
    </g>
  </g>
</svg>
